Deewana Main Deewana 2013 Hindi Movies Best HDScam Rip Sample Included ~ rDX

Screen Shots :
 
http://myimghosting.serveftp.com/13/DeewanaMainDeewana.html
 
http://myimghost.cwahi.net/DeewanaMainDeewana.html


Format                                   : MPEG-4
Format profile                           : Base Media
Codec ID                                 : isom
File size                                : 690 MiB
Duration                                 : 1h 54mn
Overall bit rate mode                    : Variable
Overall bit rate                         : 844 Kbps
Writing application                      : Lavf52.61.0

Video
ID                                       : 1
Format                                   : MPEG-4 Visual
Format profile                           : Simple@L3
Format settings, BVOP                    : No
Format settings, QPel                    : No
Format settings, GMC                     : No warppoints
Format settings, Matrix                  : Default (H.263)
Codec ID                                 : 20
Duration                                 : 1h 54mn
Bit rate                                 : 409 Kbps
Width                                    : 640 pixels
Height                                   : 272 pixels
Display aspect ratio                     : 16:9
Frame rate mode                          : Variable
Frame rate                               : 23.976 fps
Original frame rate                      : 29.970 fps
Minimum frame rate                       : 14.985 fps
Maximum frame rate                       : 29.970 fps
Color space                              : YUV
Chroma subsampling                       : 4:2:0
Bit depth                                : 8 bits
Scan type                                : Progressive
Compression mode                         : Lossy
Bits/(Pixel*Frame)                       : 0.098
Stream size                              : 335 MiB (48%)
Writing library                          : XviD 1.2.1 (UTC 2008-12-04)
Language                                 : English

Audio
ID                                       : 2
Format                                   : AAC
Format/Info                              : Advanced Audio Codec
Format profile                           : LC
Codec ID                                 : 40
Duration                                 : 1h 54mn
Bit rate mode                            : Variable
Bit rate                                 : 64.0 Kbps
Channel(s)                               : 2 channels
Channel positions                        : Front: L R
Sampling rate                            : 24.0 KHz
Compression mode                         : Lossy
Stream size                              : 52.3 MiB (8%)